<?xml version="1.0" standalone="no"?>
<!DOCTYPE svg PUBLIC "-//W3C//DTD SVG 20010904//EN"
 "http://www.w3.org/TR/2001/REC-SVG-20010904/DTD/svg10.dtd">
<svg version="1.0" xmlns="http://www.w3.org/2000/svg"
 width="1280.000000pt" height="720.000000pt" viewBox="0 0 1280.000000 720.000000"
 preserveAspectRatio="xMidYMid meet">
<metadata>
Created by potrace 1.16, written by Peter Selinger 2001-2019
</metadata>
<g transform="translate(0.000000,720.000000) scale(0.100000,-0.100000)"
fill="#000000" stroke="none">
<path d="M6713 7180 c-409 -52 -734 -280 -1170 -821 -337 -419 -374 -464 -497
-604 -405 -461 -806 -735 -1276 -870 -264 -76 -479 -100 -820 -92 -248 6 -279
9 -675 72 -430 67 -709 90 -1025 82 -343 -8 -544 -47 -738 -143 -229 -113
-345 -277 -374 -527 -10 -93 -10 -98 9 -115 12 -9 65 -53 119 -97 54 -44 125
-103 159 -130 33 -28 175 -143 315 -255 140 -112 311 -249 379 -305 167 -135
203 -164 921 -740 343 -275 685 -549 759 -610 127 -102 322 -260 596 -480 61
-49 170 -137 241 -195 71 -57 201 -163 289 -233 88 -71 225 -182 304 -246 79
-64 183 -147 231 -186 48 -38 119 -97 160 -130 40 -33 89 -73 110 -90 143
-115 186 -150 190 -154 3 -4 28 -24 55 -46 28 -21 52 -42 55 -45 3 -3 28 -24
55 -45 28 -22 52 -43 55 -46 3 -3 40 -33 83 -67 l78 -62 1599 0 1599 0 279
358 c2674 3437 3604 4634 3671 4727 l26 37 -45 86 c-70 134 -221 382 -301 494
-97 135 -173 225 -284 333 -205 200 -409 309 -680 362 -114 22 -516 24 -965 5
-877 -39 -1496 95 -2360 511 -282 136 -465 201 -677 243 -139 27 -339 38 -450
24z"/>
</g>
</svg>
